<?xml version="1.0" standalone="no"?>
<!DOCTYPE svg PUBLIC "-//W3C//DTD SVG 20010904//EN"
 "http://www.w3.org/TR/2001/REC-SVG-20010904/DTD/svg10.dtd">
<svg version="1.0" xmlns="http://www.w3.org/2000/svg"
 width="500.000000pt" height="500.000000pt" viewBox="0 0 500.000000 500.000000"
 preserveAspectRatio="xMidYMid meet">

<g transform="translate(0.000000,500.000000) scale(0.100000,-0.100000)"
fill="#000000" stroke="none">
<path d="M2215 4384 c-473 -73 -877 -289 -1198 -642 -480 -527 -639 -1287
-411 -1970 245 -734 878 -1250 1659 -1353 134 -17 482 -6 609 20 354 73 650
214 914 435 625 525 867 1378 612 2157 -97 295 -259 558 -485 785 -312 313
-692 503 -1136 568 -133 20 -438 20 -564 0z m620 -128 c109 -22 249 -61 326
-90 452 -171 825 -513 1034 -948 529 -1102 -118 -2406 -1316 -2654 -617 -128
-1260 67 -1708 515 -503 504 -677 1245 -451 1924 222 666 799 1149 1505 1262
123 19 497 14 610 -9z"/>
<path d="M3090 2766 c-169 -47 -269 -191 -258 -370 6 -87 32 -149 89 -211 124
-135 357 -157 537 -52 l32 19 0 139 0 139 -75 0 -75 0 0 -100 c0 -100 0 -101
-27 -112 -51 -20 -153 -15 -204 10 -119 58 -155 238 -67 338 78 88 217 103
317 33 l44 -31 48 48 c47 46 48 49 31 67 -25 28 -92 65 -148 82 -59 18 -181
18 -244 1z"/>
<path d="M1530 2425 l0 -345 270 0 271 0 -3 63 -3 62 -187 0 -188 0 0 83 0 82
160 0 160 0 0 60 0 60 -160 0 -160 0 0 75 0 75 183 2 182 3 3 63 3 62 -266 0
-265 0 0 -345z"/>
<path d="M2240 2705 l0 -65 120 0 120 0 0 -185 c0 -234 -8 -255 -96 -255 -40
0 -68 12 -105 46 l-25 24 -42 -52 -43 -51 27 -28 c71 -74 226 -95 329 -44 42
20 61 37 83 73 l27 47 3 278 3 277 -200 0 -201 0 0 -65z"/>
</g>
</svg>
